<svg xmlns="http://www.w3.org/2000/svg" width="165" height="40" fill="none"><path fill="#fff" fill-rule="evenodd" d="M107.133 25.194c2.996-1.635 5.517-6.945 5.517-6.945l.007.046c.676-1.296 1.602-2.509 2.614-3.297 2.533-1.975 6.66-.664 6.609 2.455-.049 3.121-3.309 7.26-6.778 7.738 0 0-2.174.332-3.259-1.614l-.867.825s-3.967 3.899-8.103 2.082c-.09-.039-.18-.078-.271-.113-.414-.162-1.975-.903-2.947-3.134l-.342.018s-1.561 3.108-2.076 4.791a.491.491 0 0 1-.464.34c-.305.006-.765-.088-1.282-.542-.926-.813-.639-1.625-.639-1.625s1.26-3.526 3.16-6.886c0 0-5.72-.845-4.476-5.365 1.244-4.52 8.853-7.1 13.306-5.914 4.454 1.187 5.409 3.275 5.222 5.804-.189 2.53-2.337 6.567-9.33 8.789 0 0 1.402 4.182 4.399 2.547Zm-2.601-11.343-4.501 7.957s7.627-2.136 9.004-8.013c1.379-5.879-7.853-5.644-11.28-1.391-3.426 4.25.864 5.784.864 5.784l3.668-6.22c.179-.304.498-.494.841-.527.162-.016.33.003.492.06.982.352 1.414 1.463.912 2.35Zm9.859 10.025c.729.403 3.052-1.696 4.255-4.143.784-1.594 1.354-3.865.684-4.25-.542-.31-1.725.7-2.133 1.075-2.37 2.183-2.95 5.582-2.95 5.582-.248 1.258-.059 1.625.144 1.736Zm20.409-2.711-.942 2.939a.466.466 0 0 1-.402.317l-.357.035c-.933.091-1.697-.713-1.515-1.602.475-2.312 1.95-7.167 6.5-16.16a2.88 2.88 0 0 1 2.297-1.547l.624-.061c.39-.038.673.353.498.692a136.97 136.97 0 0 0-5.851 12.89s4.375-2.751 5.684-6.765a.895.895 0 0 1 .773-.598c.962-.094 1.732.768 1.483 1.67-.295 1.068-1.03 2.523-2.778 4.13 0 0-1.382 1.379-4.24 2.902l.754.98s.595.877 1.665.122c1.071-.755 2.245-2.594 2.245-2.594s.567-.765 1.176.237c.61 1.002-.716 2.197-.716 2.197s-1.752 2.147-3.95 2.014c0 0-1.96-.046-2.831-2.04l-.116.24-.001.002Zm13.208-.532c.367-.031.813-.138 1.356-.345v.001l.005-.002c.783-.298 1.571-.776 2.329-1.35.308-.234.751.021.679.392a2.783 2.783 0 0 1-1.094 1.724c-2.362 1.721-5.243.895-5.243.895s-3.676-1.094-1.608-5.863c2.068-4.77 4.816-5.375 6.126-5.129 1.311.247 4.107 1.84 1.567 5.195-2.152 2.843-4.453 2.638-5.246 2.06l-.272-.333-.007.02c-.09.265-.921 2.91 1.337 2.74.023 0 .046-.003.071-.005Zm2.065-7.794c-1.756 1.218-2.735 3.425-2.735 3.425-1.116 2.386 2.124.56 3.292-1.566 1.168-2.124 1.198-3.079-.557-1.86Zm3.755 5.77c-.15-1.842.88-3.705 1.82-5.407.171-.31.339-.613.496-.91-.644-.207-1.151-.639-1.179-1-.02-.242.156-.447.556-.549.43-.109.992-.228 1.616-.323a84.265 84.265 0 0 1 2.902-4.647.646.646 0 0 1 .49-.292c.664-.065 1.521.858 1.581 1.765.015.242-.032.49-.176.716-.462.713-.859 1.39-1.256 2.068l.095-.01c1.108.045 2.038.748 2.069 1.232.015.242-.192.444-.662.488-.751.073-1.75.2-2.685.325-.215.383-.448.774-.687 1.173-1.116 1.868-2.346 3.927-2.276 6.17.014.49.308.756.734.683 2.319-.398 3.786-2.878 4.928-4.807.115-.195.227-.384.336-.564a.468.468 0 0 1 .361-.218c.468-.044 1.107.687 1.156 1.474.014.211-.005.425-.087.616-1.374 2.101-3.413 4.599-6.126 4.902-1.669.186-3.873-1.236-4.006-2.883v-.002Zm-24.816 4.79a2.489 2.489 0 0 0 1.438-2.087h.001a.528.528 0 0 0-.056-.303c-.101-.186-.357-.35-.999.222-.987.88-4.812 2.965-4.501.344.312-2.621 1.834-5.143 3.293-6.384 1.456-1.239 2.32-1.263.55 1.528a.496.496 0 0 1-.024.034c-.118.156-1.197 1.654.748 2.025a.52.52 0 0 0 .489-.168c.613-.711 2.448-3.025 1.539-4.31-1.083-1.53-3.759-2.688-6.928 1.4-2.992 3.86-3.664 10.355 3.407 8.078l.01-.004c.243-.078.495-.167.758-.268.09-.033.181-.069.275-.107Z" clip-rule="evenodd"/><path fill="#FFC635" fill-rule="evenodd" d="M139.089 29.128c-.317.5-.768 1.212-.726 1.739l.001-.002c.051.645.871 1.277 1.65 1.22.854-.062 1.812-.907 2.604-2.135.04-.087.046-.187.04-.27-.03-.38-.372-.694-.597-.677a.198.198 0 0 0-.145.067c-.885 1.405-1.764 2.286-2.153 2.315-.09.006-.139-.047-.148-.16-.045-.561 1.079-2.532 1.637-3.292a.265.265 0 0 0 .074-.202c-.028-.35-.534-.85-.999-.816-.612.044-1.98 1.66-2.88 2.722l-.202.238c.15-.296.302-.589.439-.853.221-.426.404-.777.474-.947a.434.434 0 0 0 .029-.2c-.029-.364-.442-.814-.771-.79a.314.314 0 0 0-.216.129c-.199.263-.938 1.525-1.474 2.628-.895 1.326-1.816 2.067-2.674 2.13-.494.036-.767-.171-.806-.662-.017-.21.009-.451.08-.697.213.225.495.36.84.335 1.005-.073 2.293-1.507 2.219-2.432-.055-.701-.891-1.36-1.61-1.308-.995.072-2.231 1.53-2.65 2.816-.928 1.426-1.887 2.225-2.78 2.29-.494.035-.767-.172-.806-.662a2 2 0 0 1 .08-.697c.214.225.496.36.841.334 1.004-.073 2.292-1.506 2.219-2.431-.056-.701-.892-1.36-1.61-1.308-1.003.073-2.249 1.55-2.659 2.843-.738 1.18-1.645 2.067-2.013 2.093-.09.007-.139-.045-.147-.144-.046-.575 1.119-2.606 1.45-3.18a.516.516 0 0 0 .08-.33c-.032-.407-.46-.855-.789-.831a.296.296 0 0 0-.23.13c-.205.253-.823 1.215-1.263 2.121-.773 1.468-1.543 2.412-1.947 2.441-.12.009-.17-.058-.179-.17-.043-.534.869-2.145 1.338-2.974l.1-.177a.576.576 0 0 0 .065-.314c-.035-.435-.461-.87-.776-.847a.325.325 0 0 0-.246.13c-.328.433-1.801 2.769-1.728 3.68h-.002c.044.547.734 1.456 1.678 1.387.495-.036.966-.366 1.443-.993.291.43.819.829 1.434.784.576-.041 1.238-.446 1.849-1.143.395.614 1.206 1.006 2.143.938 1.005-.073 1.883-.664 2.531-1.333.381.644 1.211 1.06 2.176.99.698-.05 1.335-.35 1.877-.754.147.31.408.492.622.476a.323.323 0 0 0 .259-.16c.656-1.035 2.919-3.667 3.204-3.688.03-.002.045.01.048.039.006.084-.126.293-.298.564Zm-4.554-1.073c-.007-.084-.055-.123-.13-.117-.375.027-1.335 1.027-1.839 2.08-.012.042-.008.084-.005.126.011.14.078.22.213.21.599-.043 1.799-1.836 1.762-2.3h-.001Zm-4.837.225c.075-.006.124.033.13.117h.002c.036.463-1.164 2.256-1.763 2.299-.134.01-.201-.07-.212-.21a.36.36 0 0 1 .004-.127c.504-1.052 1.464-2.052 1.839-2.08Zm-14.457 8.495c-.03-.373.634-1.625 1.307-2.895l.105-.198a1.552 1.552 0 0 1-.605.17c-.779.057-1.598-.575-1.654-1.276-.098-1.234 1.815-4.108 3.149-4.205.554-.04 1.15.255 1.536.565.044-.017.089-.02.134-.023.389-.029.91.258.934.566a.316.316 0 0 1-.06.188c-.636.92-2.257 4.41-2.984 6.084a.208.208 0 0 1 .167.2c.02.252-.183.732-.649 1.316a.517.517 0 0 1-.39.212c-.419.03-.958-.297-.99-.704Zm3.121-7.405c-.013-.169-.081-.248-.215-.239-.779.057-2.614 3.152-2.554 3.908.009.112.074.165.209.155.988-.072 2.634-2.884 2.56-3.824Z" clip-rule="evenodd"/><path stroke="#fff" stroke-linecap="round" stroke-width="1.213" d="m70.924 22.906 5.813-5.812M70.924 17.094l5.813 5.812"/><path fill="url(#a)" d="M10.3 15.81c.268-1.223-.215-2.093-1.09-2.667-.8-.498-1.808-.573-2.87-.075l-4.445 1.871C.78 15.412.301 16.634.78 17.655c.505 1.047 1.782 1.494 2.898 1.047l.585-.252-.955 4.864c-.268 1.47.746 2.666 2.13 2.918 1.466.251 2.899-.649 3.14-2.022l1.723-8.4Z"/><path fill="url(#b)" d="M50.689 12.781c-2.442-.332-4.91 1.006-5.855 2.898l.161-.825c.397-1.67-.343-2.118-1.62-2.118h-1.648c-1.567 0-1.916.8-2.103 1.72l-1.916 9.975c-.161.674-.054 1.846 1.357 1.846h2.287c1.357 0 1.62-.996 1.808-1.946l.928-4.789c.215-1.097.397-1.62.8-2.022.612-.649 1.835-.946 2.689-.297.504.398.692 1.072.558 2.022l-.929 5.186c-.204 1.147.317 1.846 1.331 1.846h2.286c1.304 0 1.567-.945 1.755-1.946l1.341-6.494c.602-2.34-.278-4.653-3.23-5.056Z"/><ellipse cx="36.021" cy="8.993" fill="url(#c)" rx="2.635" ry="2.445"/><path fill="url(#d)" d="M36.181 24.325c-.187 1.047-.504 1.947-1.808 1.947H32.06c-1.117 0-1.519-.775-1.304-1.796l1.91-10.025c.188-1.071.693-1.72 2.104-1.72h1.755c1.492 0 1.862.674 1.546 2.117l-1.89 9.477Z"/><path fill="url(#e)" d="M10.77 12.731c.585.649 1.278 1.449.929 3.39l-.902 4.568.161 3.667c.027 1.323.72 1.896 1.89 1.896h2.978c.928 0 1.33-.674 1.7-1.519l2.26-5.211.241 4.985c.027 1.096.612 1.77 1.702 1.77h3.38c.956 0 1.358-.548 1.782-1.519l4.336-9.975c.478-1.02.188-2.042-.982-2.042h-2.157c-.8 0-1.358.252-1.675.971l-2.93 6.675-.268-5.96c-.053-1.273-.692-1.696-1.465-1.696h-2.206c-.88 0-1.384.322-1.647.946l-2.925 6.735-.268-6.137c-.027-1.146-.45-1.544-1.438-1.544H10.77Z"/><defs><linearGradient id="a" x1="11.161" x2="11.161" y1="28.142" y2="12.413" gradientUnits="userSpaceOnUse"><stop stop-color="#0167CA"/><stop offset="1" stop-color="#38A8FA"/></linearGradient><linearGradient id="b" x1="54.516" x2="54.516" y1="26.629" y2="12.393" gradientUnits="userSpaceOnUse"><stop stop-color="#C8C7C7"/><stop offset=".076" stop-color="#D6D5D5"/><stop offset=".216" stop-color="#E8E8E8"/><stop offset=".38" stop-color="#F5F5F5"/><stop offset=".59" stop-color="#FDFDFD"/><stop offset="1" stop-color="#fff"/></linearGradient><linearGradient id="c" x1="39.787" x2="39.787" y1="12.69" y2="5.699" gradientUnits="userSpaceOnUse"><stop stop-color="#0167CA"/><stop offset="1" stop-color="#38A8FA"/></linearGradient><linearGradient id="d" x1="38.363" x2="38.363" y1="26.654" y2="12.422" gradientUnits="userSpaceOnUse"><stop stop-color="#C8C7C7"/><stop offset=".076" stop-color="#D6D5D5"/><stop offset=".216" stop-color="#E8E8E8"/><stop offset=".38" stop-color="#F5F5F5"/><stop offset=".59" stop-color="#FDFDFD"/><stop offset="1" stop-color="#fff"/></linearGradient><linearGradient id="e" x1="31.95" x2="31.95" y1="26.628" y2="12.423" gradientUnits="userSpaceOnUse"><stop stop-color="#C8C7C7"/><stop offset=".076" stop-color="#D6D5D5"/><stop offset=".216" stop-color="#E8E8E8"/><stop offset=".38" stop-color="#F5F5F5"/><stop offset=".59" stop-color="#FDFDFD"/><stop offset="1" stop-color="#fff"/></linearGradient></defs></svg>
